<?xml version="1.0" encoding="UTF-8" standalone="no"?>
<!DOCTYPE svg PUBLIC "-//W3C//DTD SVG 1.1//EN" "http://www.w3.org/Graphics/SVG/1.1/DTD/svg11.dtd">
<svg version="1.1" xmlns="http://www.w3.org/2000/svg" xmlns:xlink="http://www.w3.org/1999/xlink" preserveAspectRatio="xMidYMid meet" viewBox="0 0 640 640" width="640" height="640"><defs><path d="M172.73 192.37C172.73 221.83 150.81 245.74 123.81 245.74C96.81 245.74 74.88 221.83 74.88 192.37C74.88 162.91 96.81 139 123.81 139C150.81 139 172.73 162.91 172.73 192.37Z" id="c5CRIWL7bO"></path><clipPath id="clipe2khT2JucX"><use xlink:href="#c5CRIWL7bO" opacity="1"></use></clipPath><path d="" id="i1WgTOy5Kc"></path><path d="M218.99 230.5C209.55 237.93 196.01 236.47 188.76 227.25C181.5 218.04 183.27 204.53 192.7 197.11C202.13 189.69 215.68 191.14 222.93 200.36C230.18 209.57 228.42 223.08 218.99 230.5Z" id="eh7tVymT"></path><path d="M278.49 213.62C278.49 225.35 269.41 234.87 258.23 234.87C247.04 234.87 237.97 225.35 237.97 213.62C237.97 201.89 247.04 192.37 258.23 192.37C269.41 192.37 278.49 201.89 278.49 213.62Z" id="b3SlimOa6D"></path><path d="M327.91 212.1C327.91 222.99 318.83 231.84 307.65 231.84C296.46 231.84 287.38 222.99 287.38 212.1C287.38 201.21 296.46 192.37 307.65 192.37C318.83 192.37 327.91 201.21 327.91 212.1Z" id="a3HWDto2Fg"></path><path d="M344.71 161.87L355.58 161.87L355.58 236L344.71 236L344.71 161.87Z" id="b10iynYxQO"></path><path d="M362.5 212.1C362.5 223.83 371.58 233.35 382.76 233.35C393.94 233.35 403.02 223.83 403.02 212.1C403.02 200.37 393.94 190.85 382.76 190.85C371.58 190.85 362.5 200.37 362.5 212.1Z" id="b3kQpmr6Sy"></path><path d="" id="g1yhgagsS"></path><path d="M333.19 188.29L333.47 248.02L333.19 188.29Z" id="cbtDhLFj"></path><path d="" id="a1MVuJ7E7a"></path><path d="" id="c37B7HqVWZ"></path><path d="M334.33 244.68L331.67 249.02L328 252.68L323.33 255.02L318.33 255.68L313.33 256.02L308.67 254.02L304.67 250.68L303.67 245.68L306.33 241.35L311.33 240.02" id="a4TPut99wb"></path><path d="M128.84 195.28L165.84 195.28" id="dBvSeywRN"></path><path d="M177.17 146.28L128.84 192.37L177.17 192.37L177.17 146.28Z" id="aA3Khldhj"></path><path d="M400.51 199.95L364.18 217.01" id="c2a84JXnh"></path><path d="M407.51 198.93L376.84 214.93L407.51 214.93L407.51 198.93Z" id="a3N4r3updV"></path></defs><g><g><g><g clip-path="url(#clipe2khT2JucX)"><use xlink:href="#c5CRIWL7bO" opacity="1" fill-opacity="0" stroke="#0959f5" stroke-width="24" stroke-opacity="1"></use></g></g><g><g><use xlink:href="#i1WgTOy5Kc" opacity="1" fill-opacity="0" stroke="#000000" stroke-width="1" stroke-opacity="1"></use></g></g><g><g><use xlink:href="#eh7tVymT" opacity="1" fill-opacity="0" stroke="#f61111" stroke-width="7" stroke-opacity="1"></use></g></g><g><g><use xlink:href="#b3SlimOa6D" opacity="1" fill-opacity="0" stroke="#fca700" stroke-width="6" stroke-opacity="1"></use></g></g><g><g><use xlink:href="#a3HWDto2Fg" opacity="1" fill-opacity="0" stroke="#0959f5" stroke-width="7" stroke-opacity="1"></use></g></g><g><use xlink:href="#b10iynYxQO" opacity="1" fill="#0cb000" fill-opacity="1"></use></g><g><g><use xlink:href="#b3kQpmr6Sy" opacity="1" fill-opacity="0" stroke="#f61111" stroke-width="7" stroke-opacity="1"></use></g></g><g><g><use xlink:href="#g1yhgagsS" opacity="1" fill-opacity="0" stroke="#f61111" stroke-width="2" stroke-opacity="1"></use></g></g><g><g><use xlink:href="#cbtDhLFj" opacity="1" fill-opacity="0" stroke="#0959f5" stroke-width="7.56" stroke-opacity="1"></use></g></g><g><g><use xlink:href="#a1MVuJ7E7a" opacity="1" fill-opacity="0" stroke="#f61111" stroke-width="7.56" stroke-opacity="1"></use></g></g><g><g><use xlink:href="#c37B7HqVWZ" opacity="1" fill-opacity="0" stroke="#f61111" stroke-width="7.56" stroke-opacity="1"></use></g></g><g><g><use xlink:href="#a4TPut99wb" opacity="1" fill-opacity="0" stroke="#0959f5" stroke-width="7" stroke-opacity="1"></use></g></g><g><g><use xlink:href="#dBvSeywRN" opacity="1" fill-opacity="0" stroke="#0959f5" stroke-width="7" stroke-opacity="1"></use></g></g><g><use xlink:href="#aA3Khldhj" opacity="1" fill="#fefefe" fill-opacity="1"></use></g><g><use xlink:href="#c2a84JXnh" opacity="1" fill="#26a505" fill-opacity="1"></use><g><use xlink:href="#c2a84JXnh" opacity="1" fill-opacity="0" stroke="#f50606" stroke-width="7" stroke-opacity="1"></use></g></g><g><use xlink:href="#a3N4r3updV" opacity="1" fill="#fbfbfb" fill-opacity="1"></use><g><use xlink:href="#a3N4r3updV" opacity="1" fill-opacity="0" stroke="#096af5" stroke-width="0" stroke-opacity="1"></use></g></g></g></g></svg>